<?xml version="1.0" encoding="UTF-8" standalone="no"?><!DOCTYPE svg PUBLIC "-//W3C//DTD SVG 1.1//EN" "http://www.w3.org/Graphics/SVG/1.1/DTD/svg11.dtd"><svg width="100%" height="100%" viewBox="0 0 1024 1024" version="1.1" xmlns="http://www.w3.org/2000/svg" xmlns:xlink="http://www.w3.org/1999/xlink" xml:space="preserve" xmlns:serif="http://www.serif.com/" style="fill-rule:evenodd;clip-rule:evenodd;stroke-linejoin:round;stroke-miterlimit:2;"><path d="M332.281,791.164l-0,99.444c-0,12.344 -10.022,22.365 -22.365,22.365l-44.73,0c-12.344,0 -22.365,-10.021 -22.365,-22.365l-0,-99.444c-0,-12.344 10.021,-22.365 22.365,-22.365l44.73,-0c12.343,-0 22.365,10.021 22.365,22.365Z"/><path d="M772.093,791.164l-0,99.444c-0,12.344 -10.022,22.365 -22.365,22.365l-44.73,0c-12.344,0 -22.366,-10.021 -22.366,-22.365l0,-99.444c0,-12.344 10.022,-22.365 22.366,-22.365l44.73,-0c12.343,-0 22.365,10.021 22.365,22.365Z"/><path d="M887.413,298.733l0,375.414c0,103.598 -84.108,187.706 -187.706,187.706l-375.414,0c-103.598,0 -187.706,-84.108 -187.706,-187.706l-0,-375.414c-0,-103.598 84.108,-187.706 187.706,-187.706l375.414,-0c103.598,-0 187.706,84.108 187.706,187.706Z" style="fill:#f70000;"/><path d="M840.287,260.017l0,347.41c0,44.759 -36.338,81.097 -81.097,81.097l-494.38,0c-44.759,0 -81.097,-36.338 -81.097,-81.097l-0,-347.41c-0,-44.758 36.338,-81.097 81.097,-81.097l494.38,0c44.759,0 81.097,36.339 81.097,81.097Z" style="fill:#e5f9ff;"/><path d="M183.713,724.468c-0,0 11.981,88.661 134.989,88.661c123.008,0 85.466,-3.195 85.466,-3.195c0,0 -2.396,-77.478 -87.063,-77.478c-84.668,-0 -133.392,-7.988 -133.392,-7.988Z" style="fill:#fffa48;"/><path d="M840.287,724.468c0,0 -11.981,88.661 -134.989,88.661c-123.008,0 -85.466,-3.195 -85.466,-3.195c-0,0 2.396,-77.478 87.063,-77.478c84.668,-0 133.392,-7.988 133.392,-7.988Z" style="fill:#fffa48;"/></svg>